<?xml version="1.0" standalone="no"?>
<!DOCTYPE svg PUBLIC "-//W3C//DTD SVG 20010904//EN"
 "http://www.w3.org/TR/2001/REC-SVG-20010904/DTD/svg10.dtd">
<svg version="1.0" xmlns="http://www.w3.org/2000/svg"
 width="512.000000pt" height="512.000000pt" viewBox="0 0 512.000000 512.000000"
 preserveAspectRatio="xMidYMid meet">
<metadata>
Created by potrace 1.14, written by Peter Selinger 2001-2017
</metadata>
<g transform="translate(0.000000,512.000000) scale(0.100000,-0.100000)"
fill="#000000" stroke="none">
<path d="M393 5106 c-184 -45 -342 -208 -382 -394 -16 -75 -16 -4229 0 -4304
41 -191 206 -357 397 -397 75 -16 4229 -16 4304 0 191 40 356 206 397 397 16
75 16 4229 0 4304 -41 191 -206 357 -397 397 -81 17 -4248 14 -4319 -3z m1354
-1261 c195 -32 350 -111 479 -246 84 -88 135 -169 176 -281 23 -64 58 -204 58
-234 0 -2 -76 -4 -168 -4 l-169 0 -12 55 c-29 128 -135 286 -237 354 -139 92
-361 113 -527 51 -223 -84 -376 -313 -439 -657 -17 -95 -21 -157 -21 -323 -1
-300 32 -468 126 -660 43 -88 64 -118 132 -186 120 -122 210 -162 385 -171
187 -9 317 34 426 143 70 70 136 190 156 285 l12 59 168 0 c92 0 168 -3 168
-7 0 -5 -9 -44 -20 -88 -67 -279 -226 -489 -448 -592 -229 -107 -554 -117
-788 -25 -191 76 -363 243 -472 458 -141 279 -194 706 -136 1104 77 535 362
887 779 965 96 18 261 18 372 0z m2223 -49 c285 -66 474 -241 552 -512 33
-115 33 -343 0 -459 -84 -293 -295 -473 -611 -520 -68 -11 -187 -15 -408 -15
l-313 0 0 -495 0 -495 -155 0 -155 0 0 1253 c0 690 3 1257 7 1261 5 4 233 6
508 3 427 -3 511 -7 575 -21z"/>
<path d="M3190 3055 l0 -485 309 0 c347 0 412 8 513 62 67 35 146 116 177 180
69 145 67 347 -5 490 -36 71 -113 149 -178 181 -104 51 -153 57 -498 57 l-318
0 0 -485z"/>
</g>
</svg>
